<mxfile host="app.diagrams.net" modified="2020-12-06T07:34:01.654Z" agent="5.0 (Windows NT 10.0; Win64; x64) AppleWebKit/537.36 (KHTML, like Gecko) Chrome/87.0.4280.88 Safari/537.36" etag="w6Dat09kSnBKEFkw7LI3" version="13.10.9" type="github">
  <diagram id="GyGstJnYiGR0zrlPxI53" name="Page-1">
    <mxGraphModel dx="1038" dy="588" grid="1" gridSize="10" guides="1" tooltips="1" connect="1" arrows="1" fold="1" page="1" pageScale="1" pageWidth="827" pageHeight="1169" math="1" shadow="0">
      <root>
        <mxCell id="0" />
        <mxCell id="1" parent="0" />
        <mxCell id="GZS0eMp2VOaluRmrxx-m-25" value="" style="group" vertex="1" connectable="0" parent="1">
          <mxGeometry x="160" y="294" width="451" height="66" as="geometry" />
        </mxCell>
        <mxCell id="GZS0eMp2VOaluRmrxx-m-4" value="" style="group" vertex="1" connectable="0" parent="GZS0eMp2VOaluRmrxx-m-25">
          <mxGeometry x="55" width="250" height="41" as="geometry" />
        </mxCell>
        <mxCell id="GZS0eMp2VOaluRmrxx-m-2" value="" style="shape=partialRectangle;whiteSpace=wrap;html=1;bottom=1;right=1;left=1;top=0;fillColor=none;routingCenterX=-0.5;rotation=-180;horizontal=0;" vertex="1" parent="GZS0eMp2VOaluRmrxx-m-4">
          <mxGeometry x="15.75" y="4.375" width="73.5" height="26.25" as="geometry" />
        </mxCell>
        <mxCell id="GZS0eMp2VOaluRmrxx-m-3" value="$$|g\rangle$$" style="text;strokeColor=none;fillColor=none;html=1;fontSize=14;fontStyle=1;verticalAlign=middle;align=center;" vertex="1" parent="GZS0eMp2VOaluRmrxx-m-4">
          <mxGeometry width="105" height="35" as="geometry" />
        </mxCell>
        <mxCell id="GZS0eMp2VOaluRmrxx-m-5" value="" style="group" vertex="1" connectable="0" parent="GZS0eMp2VOaluRmrxx-m-4">
          <mxGeometry x="117" width="105" height="35" as="geometry" />
        </mxCell>
        <mxCell id="GZS0eMp2VOaluRmrxx-m-6" value="" style="shape=partialRectangle;whiteSpace=wrap;html=1;bottom=1;right=1;left=1;top=0;fillColor=none;routingCenterX=-0.5;rotation=-180;horizontal=0;" vertex="1" parent="GZS0eMp2VOaluRmrxx-m-5">
          <mxGeometry x="21.75" y="4.375" width="73.5" height="26.25" as="geometry" />
        </mxCell>
        <mxCell id="GZS0eMp2VOaluRmrxx-m-7" value="$$|e\rangle$$" style="text;strokeColor=none;fillColor=none;html=1;fontSize=14;fontStyle=1;verticalAlign=middle;align=center;" vertex="1" parent="GZS0eMp2VOaluRmrxx-m-5">
          <mxGeometry width="105" height="35" as="geometry" />
        </mxCell>
        <mxCell id="GZS0eMp2VOaluRmrxx-m-8" value="" style="group" vertex="1" connectable="0" parent="GZS0eMp2VOaluRmrxx-m-5">
          <mxGeometry x="123" width="105" height="35" as="geometry" />
        </mxCell>
        <mxCell id="GZS0eMp2VOaluRmrxx-m-9" value="" style="shape=partialRectangle;whiteSpace=wrap;html=1;bottom=1;right=1;left=1;top=0;fillColor=none;routingCenterX=-0.5;rotation=-180;horizontal=0;" vertex="1" parent="GZS0eMp2VOaluRmrxx-m-8">
          <mxGeometry x="11.75" y="4.375" width="73.5" height="26.25" as="geometry" />
        </mxCell>
        <mxCell id="GZS0eMp2VOaluRmrxx-m-10" value="$$|s\rangle$$" style="text;strokeColor=none;fillColor=none;html=1;fontSize=14;fontStyle=1;verticalAlign=middle;align=center;" vertex="1" parent="GZS0eMp2VOaluRmrxx-m-8">
          <mxGeometry width="105" height="35" as="geometry" />
        </mxCell>
        <mxCell id="GZS0eMp2VOaluRmrxx-m-16" value="" style="line;strokeWidth=2;html=1;fontSize=5;" vertex="1" parent="GZS0eMp2VOaluRmrxx-m-4">
          <mxGeometry x="90" y="26.63" width="50" height="10" as="geometry" />
        </mxCell>
        <mxCell id="GZS0eMp2VOaluRmrxx-m-19" value="" style="line;strokeWidth=2;html=1;fontSize=5;" vertex="1" parent="GZS0eMp2VOaluRmrxx-m-4">
          <mxGeometry x="212" y="26.629999999999995" width="40" height="10" as="geometry" />
        </mxCell>
        <mxCell id="GZS0eMp2VOaluRmrxx-m-11" value="" style="line;strokeWidth=2;html=1;fontSize=5;" vertex="1" parent="GZS0eMp2VOaluRmrxx-m-25">
          <mxGeometry y="26" width="71" height="10" as="geometry" />
        </mxCell>
        <mxCell id="GZS0eMp2VOaluRmrxx-m-22" value="" style="line;strokeWidth=2;html=1;fontSize=5;" vertex="1" parent="GZS0eMp2VOaluRmrxx-m-25">
          <mxGeometry x="380" y="26" width="71" height="10" as="geometry" />
        </mxCell>
        <mxCell id="GZS0eMp2VOaluRmrxx-m-23" value="" style="line;strokeWidth=2;html=1;fontSize=5;" vertex="1" parent="GZS0eMp2VOaluRmrxx-m-25">
          <mxGeometry y="56" width="450" height="10" as="geometry" />
        </mxCell>
      </root>
    </mxGraphModel>
  </diagram>
</mxfile>
